<svg width="511" height="297" viewBox="0 0 511 297" fill="none" xmlns="http://www.w3.org/2000/svg">
<path d="M31.3368 296.851C31.3368 296.851 -31.4455 226.125 20.719 149.554C67.0033 81.6149 117.683 74.586 157.274 102.156C174.137 113.899 226.035 115.276 267.415 46.1461C323.845 -48.1279 519.45 9.04897 483.783 154.093C466.526 224.285 536.311 226.836 500.753 297L31.3368 296.851Z" fill="#F0F9FF"/>
<path d="M123.821 109.252C123.769 108.953 123.1 105.742 118.377 106.289C118.377 106.289 120.728 106.227 121.275 107.235C121.275 107.235 119.518 106.155 118.295 106.774C117.073 107.396 116.646 109.87 116.745 110.648C116.845 111.426 117.903 113.82 118.745 113.908C119.065 113.941 119.417 113.867 119.731 113.76C119.563 114.147 119.405 114.573 119.263 115.04C117.946 119.375 120.426 123.034 121.954 122.356C122.934 121.92 123.474 123.702 123.474 123.702L132.204 113.773C132.204 113.773 127.479 106.422 123.821 109.252Z" fill="#2C3A64"/>
<path d="M135.195 228.844L133.071 229.675C133.071 229.675 123.849 216.228 122.713 204.395C122.51 202.284 122.578 200.236 123.017 198.346C123.017 198.346 122.927 197.804 122.769 196.848C122.696 196.401 122.606 195.863 122.503 195.248C122.204 193.442 121.791 190.971 121.319 188.157C120.234 181.681 118.829 173.404 117.736 167.318L118.308 167.125L124.499 165.026L125.778 160.754L130.388 159.478C130.388 159.478 131.417 161.596 132.338 171.599C132.508 172.912 132.662 174.359 132.778 175.928C133.137 180.717 133.163 186.66 132.339 193.451C132.128 195.189 131.861 196.985 131.53 198.83C131.287 200.181 131.251 202.024 131.353 204.141C131.818 213.812 135.195 228.844 135.195 228.844Z" fill="#2B478B"/>
<path d="M132.778 175.928L122.769 196.849C122.696 196.401 122.606 195.863 122.503 195.248C122.204 193.442 121.791 190.971 121.319 188.157C120.234 181.681 118.829 173.404 117.736 167.318L118.308 167.125L124.499 165.026L125.778 160.754L130.388 159.478C130.388 159.478 131.417 161.596 132.338 171.599C132.508 172.912 132.662 174.359 132.778 175.928Z" fill="#233862"/>
<path d="M128.375 162.162L128.143 160.073C124.261 161.158 113.889 157.044 113.889 157.044C113.889 157.044 110.128 160.52 110.622 168.851C110.863 172.917 111.303 190.195 111.763 195.308C111.929 197.161 112.074 198.481 112.134 199.008C112.135 199.01 112.135 199.012 112.135 199.012C112.154 199.172 112.1 199.325 112.022 199.466C111.346 200.673 110.785 201.93 110.325 203.218C105.812 215.86 111.021 231.43 111.021 231.43L112.372 230.857C112.372 230.857 115.335 213.53 117.744 205.876C118.153 204.577 118.544 203.556 118.903 202.947C119.95 201.17 120.922 198.267 121.804 194.816C123.471 188.288 124.813 179.796 125.706 173.242C125.829 173.248 128.375 162.162 128.375 162.162Z" fill="#2B478B"/>
<path d="M129.641 145.007C129.672 145.117 129.701 145.225 129.747 145.337C131.264 149.83 133.965 154.548 135.808 156.27C137.018 157.408 140.342 158.588 143.169 159.433C145.046 160.011 146.594 160.318 147.281 160.5L148.382 158.739C148.382 158.739 146.915 157.774 145.124 156.507C142.637 154.731 139.527 152.391 138.931 151.386C137.553 149.048 136.639 141.904 135.457 137.081C135.398 136.821 135.338 136.569 135.277 136.321C135.232 136.139 135.186 135.961 135.14 135.783C135.13 135.748 135.123 135.695 135.098 135.656C135.033 135.455 134.984 135.273 134.931 135.109C134.933 135.093 134.919 135.074 134.907 135.054C134.669 134.253 134.11 133.133 134.11 133.133C133.764 132.572 133.388 132.292 132.98 132.388C132.98 132.388 132.426 132.564 131.713 133.08C131.563 133.188 131.406 133.311 131.246 133.449C131.138 133.514 131.057 133.602 130.977 133.692C130.413 134.22 129.83 134.951 129.385 135.93C129.046 136.673 128.78 137.548 128.648 138.606C128.419 140.329 128.857 142.628 129.641 145.007Z" fill="#FFB27D"/>
<path d="M131.745 136.809C130.62 137.579 129.219 138.203 127.471 138.572C120.919 139.962 118.579 134.102 117.748 130.105C118.651 129.597 119.489 129.503 119.973 129.456C120.445 129.413 120.941 129.388 121.352 129.38C122.098 128.813 123.252 126.437 123.593 122.702L123.897 122.797L128.988 124.425C128.988 124.425 128.707 126.134 128.549 127.752C128.426 129.017 128.379 130.228 128.599 130.531C128.997 130.635 129.236 130.701 129.236 130.701C129.236 130.701 129.237 130.703 129.239 130.707C129.304 130.827 130.724 133.446 131.745 136.809Z" fill="#FFB27D"/>
<path d="M128.988 124.427C128.988 124.427 128.706 126.134 128.549 127.752C125.65 127.359 124.379 124.41 123.897 122.799L128.988 124.427Z" fill="#ED985F"/>
<path d="M129.813 126.063C129.813 126.063 122.925 125.457 123.349 120.954C123.773 116.449 123.169 113.337 127.586 113.533C132.002 113.728 132.693 115.536 132.899 117.076C133.106 118.617 131.616 126.104 129.813 126.063Z" fill="#FFB27D"/>
<path d="M135.277 136.321C135.232 136.139 135.186 135.961 135.14 135.783C135.13 135.748 135.123 135.695 135.098 135.656C135.034 135.455 134.984 135.273 134.931 135.109C134.933 135.093 134.919 135.074 134.907 135.054C134.669 134.253 134.11 133.133 134.11 133.133C133.86 132.726 133.608 132.369 133.333 132.238C133.117 132.095 131.92 131.362 129.236 130.701C129.236 130.701 129.236 130.703 129.239 130.707C129.307 130.873 131.142 135.269 130.838 136.313C130.529 137.374 121.644 135.455 121.081 134.792C120.631 134.261 120.192 131.155 120.035 129.943C119.995 129.642 119.973 129.456 119.973 129.456C119.973 129.456 116.76 129.49 115.091 130.514C115.091 130.514 116.012 132.005 116.513 133.727C116.56 133.891 116.604 134.057 116.642 134.221C116.726 134.571 116.785 134.925 116.814 135.275C116.851 135.736 116.683 136.176 116.379 136.628C116.103 137.042 115.71 137.468 115.262 137.929C114.969 138.228 114.653 138.543 114.329 138.881C114.328 138.881 114.328 138.883 114.328 138.883C114.584 140.963 115.195 144.353 115.332 148.049C115.366 148.987 115.197 149.915 114.845 150.768C114.706 151.108 114.538 151.436 114.343 151.747C112.784 154.226 110.088 159.106 111.189 161.718C111.597 164.279 132.668 164.509 131.838 161.755C131.838 161.755 132.769 145.593 133.918 141.551C133.959 141.402 133.996 141.258 134.026 141.113C134.347 139.575 134.068 138.09 133.71 136.768C134.264 136.526 134.859 136.393 135.277 136.321Z" fill="#FF9843"/>
<path d="M132.934 114.551C131.999 113.083 131.168 113.296 130.679 113.656C127.127 111.088 124.398 114.045 124.398 114.045C123.631 117.229 121.238 118.847 121.238 118.847C121.238 118.847 122.414 119.793 125.378 119.316C126.283 119.17 127.134 118.593 127.88 117.864C126.515 119.801 124.782 121.118 124.782 121.118C128.393 119.805 130.26 114.903 130.449 114.383C130.831 114.825 131.577 115.773 131.748 116.642C131.982 117.827 131.911 120.204 132.573 120.192C132.573 120.192 134.334 116.75 132.934 114.551Z" fill="#2C3A64"/>
<path d="M125.562 157.33C121.492 157.905 117.438 153.993 114.845 150.768C115.197 149.915 115.366 148.987 115.332 148.049C115.194 144.353 114.584 140.963 114.328 138.883C114.328 138.883 114.328 138.881 114.329 138.881C114.653 138.543 114.969 138.228 115.262 137.929C115.71 137.468 116.103 137.042 116.379 136.627C120.523 142.034 131.081 156.55 125.562 157.33Z" fill="#ED7D2B"/>
<path d="M118.877 232.591H108.183C108.183 232.591 107.927 230.877 108.485 229.577C109.021 228.33 109.859 227.763 109.658 226.254C110.338 226.989 111.445 227.814 112.991 227.595C113.181 227.918 114.214 229.645 114.847 230.124C115.546 230.652 118.662 230.462 118.877 232.591Z" fill="#233862"/>
<path d="M141.84 232.591H131.146C131.146 232.591 130.746 230.799 131.448 229.577C132.069 228.498 131.831 227.882 131.371 226.989C131.855 227.198 132.482 227.388 133.172 227.347C133.705 227.314 134.268 227.06 134.762 226.759C135.223 227.31 137.194 229.659 137.81 230.124C138.508 230.652 141.625 230.462 141.84 232.591Z" fill="#233862"/>
<path d="M128.17 123.458C128.17 123.458 128.267 124.054 129.662 124.056C129.662 124.056 130.834 124.056 130.837 123.409C130.837 123.409 129.733 122.874 128.17 123.458Z" fill="white"/>
<path d="M145.962 161.221C145.397 162.026 143.904 163.254 141.98 162.315C140.602 161.655 139.133 161.162 138.419 160.931C138.135 160.856 137.973 160.803 137.973 160.803L138.883 158.463C138.883 158.463 138.91 158.479 138.977 158.497C139.477 158.643 141.949 158.652 143.308 159.417C144.881 160.302 146.626 160.274 145.962 161.221Z" fill="#FFB27D"/>
<path d="M139.764 158.796L139.382 161.001C139.382 161.001 138.667 160.931 137.527 160.814C137.186 160.778 136.99 160.745 136.99 160.745C136.077 160.641 134.984 160.487 133.794 160.324L133.777 160.325C131.734 160.003 129.443 159.602 127.498 159.101C126.13 158.735 124.934 158.318 124.106 157.868C124.022 157.825 123.954 157.78 123.869 157.719C121.878 156.46 119.305 152.456 117.203 148.103C116.912 147.502 116.636 146.9 116.362 146.314C115.376 144.132 114.552 141.969 114.009 140.085C113.674 138.963 113.428 137.935 113.325 137.079C113.284 136.776 113.245 136.493 113.238 136.221C113.227 136.067 113.217 135.914 113.211 135.766C114.016 135.025 115.872 133.643 118.403 133.786C118.457 133.881 118.508 133.977 118.561 134.075C119.653 136.162 120.845 138.885 121.972 141.596C122.596 143.083 123.202 144.571 123.799 145.941C124.142 146.774 124.481 147.557 124.798 148.275C125.412 149.643 125.954 150.747 126.414 151.433C126.709 151.882 127.499 152.471 128.537 153.123C130.341 154.263 132.952 155.602 135.218 156.684C136.159 157.141 137.048 157.552 137.786 157.891C138.977 158.444 139.764 158.796 139.764 158.796Z" fill="#FFB27D"/>
<path d="M118.556 134.081C115.4 133.469 113.232 136.217 113.232 136.217C112.868 131.341 115.12 130.463 115.12 130.463C116.015 129.974 117.23 131.565 118.556 134.081Z" fill="#FF9843"/>
<path d="M144.872 238.933H96.5809C95.9412 238.933 95.4182 238.384 95.4182 237.712V233.814C95.4182 233.142 95.9412 232.591 96.5809 232.591H144.872C145.511 232.591 146.035 233.142 146.035 233.814V237.712C146.035 238.384 145.511 238.933 144.872 238.933Z" fill="#EE9849"/>
<path d="M107.684 238.933L107.083 242.645L98.3787 296.367C98.3543 296.553 98.158 296.695 97.9236 296.695C97.4768 296.695 97.1288 296.385 97.1762 296.025L104.08 241.011L104.341 238.933H107.684Z" fill="#EFCBAB"/>
<path d="M107.684 238.933L107.083 242.645C106.67 241.165 104.08 241.011 104.08 241.011L104.341 238.933H107.684Z" fill="#CCA07F"/>
<path d="M143.529 296.695C143.295 296.695 143.099 296.553 143.074 296.367L134.37 242.645L133.995 240.329L133.769 238.933H137.112L137.373 241.011L137.578 242.643L144.277 296.025C144.324 296.385 143.976 296.695 143.529 296.695Z" fill="#EFCBAB"/>
<path d="M137.578 242.643C136.727 240.874 133.996 240.331 133.996 240.331C133.996 240.331 133.996 240.331 133.995 240.329L133.769 238.933H137.112L137.373 241.011L137.578 242.643Z" fill="#CCA07F"/>
</svg>
