<svg width="10" height="6" viewBox="0 0 10 6" fill="none" xmlns="http://www.w3.org/2000/svg">
<path fill-rule="evenodd" clip-rule="evenodd" d="M0.96967 5.28033C0.676777 4.98744 0.676777 4.51256 0.96967 4.21967L4.46967 0.71967C4.76256 0.426777 5.23744 0.426777 5.53033 0.71967L7.28033 2.46967C7.57322 2.76256 7.57322 3.23744 7.28033 3.53033C6.98744 3.82322 6.51256 3.82322 6.21967 3.53033L5 2.31066L2.03033 5.28033C1.73744 5.57322 1.26256 5.57322 0.96967 5.28033ZM7.53217 3.78217C7.82506 3.48928 8.29994 3.48928 8.59283 3.78217L9.03033 4.21967C9.32322 4.51256 9.32322 4.98744 9.03033 5.28033C8.73744 5.57322 8.26256 5.57322 7.96967 5.28033L7.53217 4.84283C7.23928 4.54994 7.23928 4.07506 7.53217 3.78217Z" fill="#030327"/>
</svg>
